<svg id="Layer_1" xmlns="http://www.w3.org/2000/svg" viewBox="0 0 103.1 103.1"><style>.st0{fill:none;stroke:#5c8ac7;stroke-width:5;stroke-miterlimit:10}.st1{fill:#5c8ac7}</style><circle id="XMLID_8_" class="st0" cx="51.6" cy="51.6" r="49.1"/><g id="XMLID_15_"><path id="XMLID_18_" class="st1" d="M39.7 58.8c0 .1 0 .1-.1.2s-.1.1-.2.1-.2.1-.3.1h-1c-.1 0-.3 0-.3-.1-.1 0-.1-.1-.2-.1s-.1-.1-.1-.2v-7.5h-7.7v7.5c0 .1 0 .1-.1.2s-.1.1-.2.1-.2.1-.3.1h-1c-.1 0-.3 0-.4-.1-.1 0-.1-.1-.2-.1s-.1-.1-.1-.2V42.6c0-.1 0-.1.1-.2s.1-.1.2-.1.2-.1.4-.1h1c.1 0 .3 0 .3.1.1 0 .1.1.2.1s.1.1.1.2v6.8h7.7v-6.8c0-.1 0-.1.1-.2s.1-.1.2-.1.2-.1.3-.1h1c.1 0 .3 0 .3.1.1 0 .1.1.2.1s.1.1.1.2v16.2z"/><path id="XMLID_20_" class="st1" d="M54 58.9v.2c0 .1-.1.1-.2.1s-.2.1-.3.1h-1c-.1 0-.2 0-.3-.1-.1 0-.1-.1-.2-.1v-1.8c-.7.7-1.3 1.3-2 1.6-.7.3-1.3.5-2 .5-.8 0-1.4-.1-2-.4-.5-.3-1-.6-1.3-1.1-.3-.4-.6-1-.7-1.6-.1-.6-.2-1.3-.2-2.2V47v-.2s.1-.1.2-.1.2-.1.3-.1h1c.1 0 .3 0 .3.1.1 0 .1.1.2.1s.2.2.2.3V54c0 .7.1 1.2.2 1.7.1.4.3.8.5 1.1.2.3.5.5.8.7.3.2.7.2 1.1.2.5 0 1.1-.2 1.6-.6s1.1-.9 1.7-1.7v-8.2-.2c0-.1.1-.1.2-.1s.2-.1.3-.1h1c.1 0 .2 0 .3.1.1 0 .1.1.2.1 0 0 .1.1.1.2v11.7z"/><path id="XMLID_22_" class="st1" d="M64.8 47.9v.5c0 .1 0 .2-.1.3 0 .1-.1.1-.1.2 0 0-.1.1-.2.1s-.2 0-.3-.1c-.1 0-.2-.1-.3-.1s-.3-.1-.4-.1-.3-.1-.5-.1-.4 0-.6.1c-.2.1-.4.2-.7.4-.2.2-.5.5-.7.8-.3.3-.5.7-.8 1.2v7.7c0 .1 0 .1-.1.2s-.1.1-.2.1-.2.1-.3.1h-1c-.1 0-.3 0-.3-.1-.1 0-.1-.1-.2-.1s0-.1 0-.2V47.1v-.2s.1-.1.2-.1.2-.1.3-.1h1c.1 0 .2 0 .3.1.1 0 .1.1.1.1v1.9c.3-.5.6-.9.9-1.1s.5-.5.8-.7.5-.3.8-.4c.2-.1.5-.1.8-.1h.4c.2 0 .3 0 .5.1s.3.1.4.1c.1 0 .2.1.3.1s.1.1.1.1v.4c-.1.2-.1.4-.1.6z"/><path id="XMLID_24_" class="st1" d="M76.4 46.3c0 .8-.1 1.4-.3 2-.2.6-.5 1.1-.9 1.5-.4.4-.9.7-1.4 1-.5.2-1.2.4-1.8.4l-.1 3.1c0 .1-.1.2-.2.3-.2.1-.4.1-.7.1h-.5c-.2 0-.2 0-.3-.1-.1 0-.1-.1-.2-.1s-.1-.1-.1-.2l-.1-3.6v-.5c0-.1.1-.2.2-.3.1-.1.2-.1.3-.2h.7c.6 0 1-.1 1.4-.3s.7-.4 1-.7c.2-.3.4-.6.5-1 .1-.4.2-.8.2-1.3s-.1-1-.2-1.4c-.1-.4-.3-.8-.6-1.1s-.6-.5-1.1-.7c-.4-.2-.9-.2-1.5-.2-.5 0-.9.1-1.3.2s-.7.2-1 .4c-.3.1-.5.2-.7.4s-.3.2-.4.2h-.2l-.1-.1c0-.1-.1-.2-.1-.3v-.5-.5c0-.1.1-.2.2-.3s.3-.2.5-.3c.2-.1.5-.3.9-.4.4-.1.7-.2 1.2-.3s.9-.1 1.3-.1c.9 0 1.7.1 2.4.4.7.3 1.2.6 1.7 1.1.4.5.8 1 1 1.6.2.4.3 1.1.3 1.8zm-4.1 11.5c0 .3 0 .5-.1.7s-.1.4-.2.5c-.1.1-.2.2-.4.2s-.4.1-.7.1c-.3 0-.5 0-.7-.1s-.3-.1-.4-.2c-.1-.1-.2-.3-.2-.5s-.1-.4-.1-.7 0-.5.1-.7c0-.2.1-.3.2-.5.1-.1.3-.2.4-.2s.4-.1.7-.1c.3 0 .5 0 .7.1s.3.1.4.2c.1.1.2.3.2.5.1.2.1.4.1.7z"/></g></svg>