<svg id="Layer_1" xmlns="http://www.w3.org/2000/svg" viewBox="0 0 103.1 103.1"><style>.st0{fill:none;stroke:#5c8ac7;stroke-width:5;stroke-miterlimit:10}.st1{fill:#5c8ac7}</style><circle id="XMLID_7_" class="st0" cx="51.6" cy="51.6" r="49.1"/><g id="XMLID_30_"><path id="XMLID_31_" class="st1" d="M34.2 58.7c0 .1-.1.2-.1.2-.1.1-.1.1-.3.1s-.2.1-.4.1h-1.5c-.1 0-.2 0-.3-.1-.1 0-.1 0-.2-.1-.1 0-.1-.1-.1-.1s-.1-.1-.1-.2L25.6 43c-.1-.2-.1-.3-.1-.5 0-.1 0-.2.1-.3.1-.1.2-.1.4-.1H27.3c.2 0 .3 0 .3.1.1 0 .1.1.2.1 0 .1.1.1.1.2l4.8 14.2 4.7-14.2c0-.1.1-.2.1-.2 0-.1.1-.1.2-.1s.2-.1.4-.1h1.2c.2 0 .3.1.3.1.1.1.1.1.1.3 0 .1-.1.3-.1.5l-5.4 15.7z"/><path id="XMLID_33_" class="st1" d="M49.6 58.8c0 .1 0 .2-.1.2-.1.1-.2.1-.3.1h-1c-.1 0-.2-.1-.3-.1-.1-.1-.1-.1-.1-.2v-1.2c-.5.5-1.1 1-1.7 1.3-.6.3-1.3.5-2 .5-.6 0-1.2-.1-1.7-.2-.5-.2-.9-.4-1.3-.7-.4-.3-.6-.7-.8-1.1-.2-.4-.3-.9-.3-1.5 0-.7.1-1.2.4-1.7s.7-.9 1.2-1.2 1.1-.6 1.9-.7c.7-.2 1.6-.2 2.5-.2h1.6v-.9c0-.5 0-.9-.1-1.2s-.3-.6-.5-.9c-.2-.2-.5-.4-.8-.5-.3-.1-.8-.2-1.3-.2s-1 .1-1.4.2c-.4.1-.8.3-1.1.4-.3.2-.6.3-.8.4-.2.1-.4.2-.5.2-.1 0-.1 0-.2-.1-.1 0-.1-.1-.1-.2s-.1-.2-.1-.3v-.4-.5c0-.1.1-.2.2-.4.1-.1.3-.2.6-.4s.6-.3 1-.4l1.2-.3c.4-.1.9-.1 1.3-.1.8 0 1.6.1 2.2.3.6.2 1.1.5 1.4.8.4.4.6.8.8 1.4.2.5.2 1.2.2 1.9v7.9zm-2.1-5.4h-1.8c-.6 0-1.1.1-1.5.1-.4.1-.8.2-1.1.4s-.5.4-.6.7-.2.6-.2.9c0 .6.2 1.1.6 1.5.4.4.9.5 1.6.5.6 0 1.1-.1 1.6-.4.5-.3 1-.7 1.5-1.3v-2.4z"/><path id="XMLID_36_" class="st1" d="M63.6 58.7v.2c0 .1-.1.1-.2.1s-.2.1-.3.1h-.9c-.1 0-.2 0-.3-.1-.1 0-.1-.1-.2-.1s-.1-.1-.1-.2v-1.6c-.6.7-1.3 1.2-1.9 1.6-.7.4-1.4.6-2.2.6-.9 0-1.6-.2-2.2-.5s-1.1-.8-1.5-1.4-.7-1.2-.8-2c-.2-.8-.3-1.6-.3-2.4 0-1 .1-1.9.3-2.7.2-.8.5-1.5 1-2.1s1-1 1.6-1.3c.6-.3 1.4-.5 2.2-.5.7 0 1.3.1 1.9.5s1.1.7 1.7 1.3v-6.8-.2c0-.1.1-.1.2-.1s.3-.1.4-.1h1c.1 0 .2 0 .3.1.1 0 .1.1.2.1 0 .1.1.1.1.2v17.3zm-2.2-8.2c-.6-.7-1.1-1.3-1.7-1.7-.5-.4-1.1-.6-1.7-.6-.5 0-1 .1-1.4.4-.4.3-.7.6-.9 1s-.4.9-.5 1.4c-.1.5-.2 1.1-.2 1.6 0 .6 0 1.2.1 1.7.1.6.3 1.1.5 1.5.2.4.5.8.9 1.1.4.3.8.4 1.4.4.3 0 .6 0 .8-.1.3-.1.5-.2.8-.4.3-.2.6-.4.9-.7.3-.3.6-.7 1-1.1v-4.5z"/><path id="XMLID_39_" class="st1" d="M76.8 46.1c0 .8-.1 1.4-.3 2-.2.6-.5 1.1-.9 1.5-.4.4-.9.7-1.4 1-.5.2-1.2.4-1.8.4l-.1 3.1c0 .1-.1.2-.2.3-.2.1-.4.1-.7.1h-.5c-.2 0-.2 0-.3-.1-.1 0-.1-.1-.2-.1s-.1-.1-.1-.2l-.1-3.6V50c0-.1.1-.2.2-.3.1-.1.2-.1.3-.2h.7c.6 0 1-.1 1.4-.3s.7-.4 1-.7c.2-.3.4-.6.5-1 .1-.4.2-.8.2-1.3s-.1-1-.2-1.4c-.1-.4-.3-.8-.6-1.1s-.6-.5-1.1-.7c-.4-.2-.9-.2-1.5-.2-.5 0-.9.1-1.3.2s-.7.2-1 .4c-.3.1-.5.2-.7.4s-.3.2-.4.2h-.2l-.1-.1c0-.1-.1-.2-.1-.3v-.5-.5c0-.1.1-.2.2-.3s.3-.2.5-.3c.2-.1.5-.3.9-.4.4-.1.7-.2 1.2-.3s.9-.1 1.3-.1c.9 0 1.7.1 2.4.4.7.3 1.2.6 1.7 1.1.4.5.8 1 1 1.6.1.5.3 1.2.3 1.8zm-4.2 11.6c0 .3 0 .5-.1.7s-.1.3-.2.5c-.1.1-.2.2-.4.2s-.4.1-.7.1c-.3 0-.5 0-.7-.1s-.3-.1-.4-.2c-.1-.1-.2-.3-.2-.5s-.1-.4-.1-.7 0-.5.1-.7c0-.2.1-.3.2-.5.1-.1.3-.2.4-.2s.4-.1.7-.1c.3 0 .5 0 .7.1s.3.1.4.2c.1.1.2.3.2.5.1.2.1.4.1.7z"/></g></svg>